<svg width="16" height="16" viewBox="0 0 16 16" fill="none" xmlns="http://www.w3.org/2000/svg">
<g clip-path="url(#clip0_10253_4850)">
<path d="M12.7351 12.4048L3.40534 12.4864C0.379779 11.3608 1.09726 8.48587 2.42548 7.61422C3.48806 6.91691 4.47964 7.18883 4.84261 7.41196C6.74331 3.70441 9.58459 4.24412 10.7676 4.97742V7.41196H13.0849C15.028 7.94256 15.1124 10.646 13.9973 11.6429C13.5692 11.9579 13.1693 12.2592 12.7351 12.4048Z" fill="#FCAF04"/>
<mask id="mask0_10253_4850" style="mask-type:alpha" maskUnits="userSpaceOnUse" x="1" y="4" width="14" height="9">
<path d="M12.7351 12.4048L3.40534 12.4864C0.379779 11.3608 1.09726 8.48587 2.42548 7.61422C3.48806 6.91691 4.47964 7.18883 4.84261 7.41196C6.74331 3.70441 9.58459 4.24412 10.7676 4.97742V7.41196H13.0849C15.028 7.94256 15.1124 10.646 13.9973 11.6429C13.5692 11.9579 13.1693 12.2592 12.7351 12.4048Z" fill="#FCAF04"/>
</mask>
<g mask="url(#mask0_10253_4850)">
<path d="M5.16309 7.2395C5.61701 7.37645 6.48643 7.97163 6.67373 8.97431C7.96275 8.97431 9.5092 11.2005 7.3533 12.6534" stroke="#B17C03" stroke-width="0.0216234" stroke-linecap="square"/>
<path d="M13.13 7.31494C13.5786 8.85314 13.4934 11.7586 10.2461 12.8268" stroke="#B17C03" stroke-width="0.0198215"/>
</g>
<rect x="11.1514" y="5.2395" width="1.63577" height="1.68333" fill="#FCAF04"/>
<rect x="13.1533" y="5.09058" width="1.15251" height="1.18602" fill="#FCAF04"/>
<rect x="12.083" y="4.04736" width="0.849654" height="0.874359" fill="#FCAF04"/>
<rect x="13.9863" y="4.17871" width="0.521532" height="0.536697" fill="#FCAF04"/>
<rect x="13.1533" y="3.82227" width="0.521532" height="0.536697" fill="#FCAF04"/>
<rect x="13.9775" y="3.53125" width="0.395658" height="0.407162" fill="#FCAF04"/>
</g>
<defs>
<clipPath id="clip0_10253_4850">
<rect width="16" height="16" fill="white"/>
</clipPath>
</defs>
</svg>
